<svg xmlns="http://www.w3.org/2000/svg"  viewBox="0 0 40 40" width="40px" height="40px"><path fill="#b0c1d4" d="M7.268,2.5h25.463c2.634,0,4.769,2.135,4.769,4.768v25.463c0,2.634-2.135,4.769-4.768,4.769H7.268 c-2.633,0-4.768-2.135-4.768-4.768V7.268C2.5,4.635,4.635,2.5,7.268,2.5z"/><path fill="#66798f" d="M32.732,38H7.268C4.363,38,2,35.637,2,32.732V7.268C2,4.363,4.363,2,7.268,2h25.464 C35.637,2,38,4.363,38,7.268v25.464C38,35.637,35.637,38,32.732,38z M7.268,3C4.914,3,3,4.915,3,7.268v25.465 C3,35.085,4.914,37,7.268,37h25.465C35.086,37,37,35.085,37,32.731V7.268C37,4.915,35.085,3,32.731,3H7.268z"/><path fill="#ffb5d2" d="M25,16.95c1.532,1.095,3.973,1.05,6,1.05v-3.9c-0.384,0-0.766-0.04-1.141-0.12v3.069 c-2.027,0-4.467,0.044-6-1.05v7.957c0,3.98-3.165,6.958-7.148,6.958c-1.486,0-2.867-0.449-4.014-1.219 c1.31,1.338,3.135,2.168,5.156,2.168c3.982,0,7.148-2.978,7.148-6.958V16.95L25,16.95z M26.472,12.768 c-0.783-0.855-1.297-1.96-1.409-3.182v-0.58h-1.082C24.253,10.637,25.183,11.964,26.472,12.768L26.472,12.768z M15.216,26.642 c-0.438-0.574-0.674-1.275-0.673-1.996c0-1.821,1.635-3.297,3.457-3.297c0.339,0,0.677,0.052,1,0.155v-4.36 c-0.378-0.052-0.759-0.074-1.141-0.066v3.476c-0.324-0.103-0.661-0.155-1.001-0.155c-1.822,0-3.457,1.476-3.457,3.297 C13.402,24.985,14.139,26.1,15.216,26.642z"/><path fill="#fff" d="M23.859,16c1.532,1.095,3.973,1.05,6,1.05v-3.069c-1.132-0.241-2.633-0.393-3.387-1.214	c-1.289-0.804-2.218-2.214-2.49-3.767l-2.967-0.042v15.657c0.118,1.857-1.356,3.327-3.174,3.327c-1.071,0-2.023-0.51-2.626-1.301	c-1.076-0.542-1.814-1.658-1.814-2.945c0-1.821,1.635-3.297,3.457-3.297c0.349,0,0.685,0.054,1.001,0.155v-3.475	c-4.118,0-7.695,3.234-7.695,7.579c0,1.962,1.263,3.74,2.534,5.039c1.147,0.77,2.529,1.219,4.014,1.219	c3.982,0,7.148-2.978,7.148-6.958L23.859,16L23.859,16z"/><path fill="#b5ddf5" d="M29.859,13.982v-0.83c-1.021,0.002-2.52,0.156-3.387-0.385 C27.238,13.606,28.747,13.745,29.859,13.982z M23.981,9c-0.026-0.149-0.046-0.214-0.059-0.364V8h-3.924v15.708 c-0.006,1.815-1.481,3.285-3.299,3.285c-0.534,0-1.037-0.126-1.484-0.352c0.603,0.79,1.555,1.301,2.626,1.301 c1.818,0,3.292-1.47,3.132-3.285V9H23.981z M17.859,17.079v-0.884c-0.328-0.045-0.658-0.067-0.99-0.067 c-3.983,0-7.848,3.205-7.848,7.581c0,2.496,1.748,4.695,3.676,5.988c-1.272-1.299-2.534-3.077-2.534-5.039 C10.162,20.229,13.946,17.159,17.859,17.079z"/><path fill="#66798f" d="M23.922,8v0.636C23.936,8.786,23.955,8.851,23.981,9h0.001h1.081v0.586	c0.112,1.221,0.625,2.325,1.407,3.18c0.001,0,0.001,0.001,0.002,0.001c0.55,0.343,1.355,0.407,2.131,0.407	c0.446,0,0.883-0.021,1.256-0.022v0.829c0.375,0.08,0.757,0.12,1.141,0.12V18c-0.153,0-0.307,0-0.464,0	c-1.925,0-4.119-0.038-5.536-1.05v7.956c0,3.98-3.165,6.958-7.148,6.958c-2.016,0-3.839-0.827-5.148-2.161	c0.02,0.018,0.027,0.024,0.027,0.024c0,0-0.035-0.032-0.035-0.032c0.002,0.003,0.005,0.005,0.007,0.008	c-0.002-0.002-0.005-0.004-0.007-0.007c-1.928-1.293-3.676-3.492-3.676-5.988c0-4.334,3.865-7.581,7.848-7.581	c0.332,0,0.662,0.022,0.99,0.067v0.883c0.049-0.001,0.099-0.002,0.148-0.002c0.332,0,0.664,0.023,0.993,0.068v4.36	c-0.324-0.103-0.661-0.155-1-0.155c-1.822,0-3.457,1.476-3.457,3.297c-0.001,0.721,0.235,1.421,0.672,1.995c0,0,0,0,0.001,0	c0.446,0.226,0.95,0.352,1.484,0.352c1.818,0,3.293-1.47,3.299-3.327V8H23.922 M24.922,7h-1h-3.924l-0.98,0.02v8.328	c-0.046-0.006-1.024-0.144-1.024-0.144c-0.371-0.051-0.749-0.076-1.125-0.076c-4.273,0-8.848,3.448-8.848,8.581	c0,2.513,1.507,5.035,4.037,6.763c1.55,1.543,3.604,2.392,5.794,2.392c4.569,0,8.148-3.496,8.148-7.958V18.53	C27.494,19,29.194,19,30.514,18.979l1.464,0L32,18v-3.9v-1h-1c-0.047,0-0.094-0.001-0.141-0.002V12.15l-1.002,0.002	c-0.182,0-0.378,0.005-0.583,0.01c-0.216,0.005-0.442,0.011-0.671,0.011c-0.272,0-1.058,0-1.499-0.2	c-0.591-0.692-0.949-1.53-1.106-2.435V8h-0.935h-0.141V7L24.922,7z M15.88,25.843c-0.219-0.358-0.337-0.775-0.337-1.196	c0-1.225,1.148-2.298,2.457-2.298c0.239,0,0.473,0.036,0.697,0.107l0.301,0.096v1.114c-0.004,1.303-1.014,2.327-2.299,2.327	C16.414,25.993,16.139,25.943,15.88,25.843L15.88,25.843z"/></svg>